<?xml version="1.0" standalone="no"?>
<!DOCTYPE svg PUBLIC "-//W3C//DTD SVG 20010904//EN"
 "http://www.w3.org/TR/2001/REC-SVG-20010904/DTD/svg10.dtd">
<svg version="1.0" xmlns="http://www.w3.org/2000/svg"
 width="23.000000pt" height="23.000000pt" viewBox="0 0 23.000000 23.000000"
 preserveAspectRatio="xMidYMid meet">
<metadata>
Created by potrace 1.16, written by Peter Selinger 2001-2019
</metadata>
<g transform="translate(0.000000,23.000000) scale(0.004492,-0.004492)"
fill="#000000" stroke="none">
<path d="M3793 5105 c-298 -54 -564 -232 -739 -497 -154 -233 -213 -550 -150
-800 88 -347 402 -850 885 -1416 58 -68 117 -130 132 -138 36 -18 122 -18 158
0 15 8 74 70 132 138 491 576 806 1082 889 1428 24 103 27 260 5 381 -79 456
-448 825 -904 904 -101 18 -309 18 -408 0z m380 -331 c226 -50 438 -219 539
-429 83 -174 100 -363 48 -520 -56 -165 -220 -451 -416 -725 -106 -149 -328
-433 -342 -438 -11 -3 -224 266 -357 453 -184 258 -319 492 -393 680 -130 333
54 749 406 918 46 22 116 48 155 58 94 23 264 24 360 3z"/>
<path d="M3865 4465 c-77 -24 -149 -68 -206 -124 -94 -95 -139 -204 -139 -341
0 -137 45 -246 139 -341 95 -94 204 -139 341 -139 137 0 246 45 341 139 94 95
139 204 139 341 0 137 -45 246 -139 341 -60 59 -109 89 -200 120 -64 22 -212
24 -276 4z m213 -335 c130 -79 74 -280 -78 -280 -85 0 -150 65 -150 150 0 85
65 150 150 150 27 0 58 -8 78 -20z"/>
<path d="M902 3516 c-442 -178 -817 -331 -834 -340 -16 -10 -38 -32 -49 -50
-18 -30 -19 -69 -19 -1526 l0 -1495 25 -38 c14 -20 39 -44 55 -52 71 -36 75
-35 903 296 l777 311 778 -311 c617 -247 786 -311 822 -311 36 0 212 67 860
326 448 179 827 335 842 346 61 43 58 -17 58 1090 0 993 0 1014 -20 1046 -30
48 -75 72 -140 72 -65 0 -110 -24 -140 -72 -20 -32 -20 -53 -20 -964 l0 -930
-620 -248 c-340 -136 -628 -250 -640 -253 l-20 -5 0 864 0 865 -23 33 c-65 98
-209 98 -274 0 l-23 -33 0 -863 c0 -475 -3 -864 -7 -864 -5 0 -293 114 -640
252 l-633 253 0 1262 0 1261 385 -154 c212 -85 399 -154 415 -154 153 0 224
211 100 297 -12 9 -246 105 -519 214 -425 171 -503 199 -546 198 -41 -1 -191
-57 -853 -323z m698 -1338 l0 -1263 -633 -252 c-347 -139 -635 -253 -640 -253
-4 0 -7 566 -7 1258 l0 1258 638 256 c350 141 638 257 640 257 1 1 2 -567 2
-1261z"/>
</g>
</svg>
